<svg width="24" height="24" viewBox="0 0 24 24" fill="none" xmlns="http://www.w3.org/2000/svg">
<path d="M12 0C5.374 0 0 5.373 0 12C0 17.302 3.438 21.8 8.207 23.387C8.806 23.498 9.025 23.126 9.025 22.81C9.025 22.523 9.015 21.769 9.01 20.769C5.672 21.489 4.968 19.217 4.968 19.217C4.421 17.842 3.634 17.471 3.634 17.471C2.545 16.729 3.717 16.746 3.717 16.746C4.922 16.832 5.555 18.001 5.555 18.001C6.625 19.842 8.364 19.309 9.049 18.999C9.156 18.226 9.467 17.692 9.81 17.39C7.145 17.085 4.344 16.061 4.344 11.435C4.344 10.124 4.809 9.056 5.579 8.217C5.444 7.911 5.039 6.677 5.684 5.016C5.684 5.016 6.689 4.697 8.984 6.261C9.944 5.987 10.964 5.85 11.984 5.844C13.004 5.85 14.024 5.987 14.984 6.261C17.264 4.697 18.269 5.016 18.269 5.016C18.914 6.677 18.509 7.911 18.389 8.217C19.154 9.056 19.619 10.124 19.619 11.435C19.619 16.071 16.814 17.081 14.144 17.381C14.564 17.751 14.944 18.491 14.944 19.621C14.944 21.251 14.929 22.561 14.929 22.81C14.929 23.129 15.144 23.504 15.754 23.386C20.565 21.797 24 17.3 24 12C24 5.373 18.627 0 12 0Z" fill="currentColor"/>
</svg>