<svg width="24" height="24" viewBox="0 0 24 24" fill="none" xmlns="http://www.w3.org/2000/svg">
<path d="M23.498 6.186C23.498 6.186 23.272 4.544 22.564 3.83C21.634 2.858 20.569 2.854 20.094 2.8C16.786 2.556 12.004 2.556 12.004 2.556H11.996C11.996 2.556 7.214 2.556 3.906 2.8C3.431 2.854 2.366 2.858 1.436 3.83C0.728 4.544 0.502 6.186 0.502 6.186S0.279 8.158 0.279 10.13V11.87C0.279 13.842 0.502 15.814 0.502 15.814S0.728 17.456 1.436 18.17C2.366 19.142 3.654 19.11 4.194 19.206C6.112 19.382 12 19.444 12 19.444S16.786 19.438 20.094 19.2C20.569 19.146 21.634 19.142 22.564 18.17C23.272 17.456 23.498 15.814 23.498 15.814S23.721 13.842 23.721 11.87V10.13C23.721 8.158 23.498 6.186 23.498 6.186ZM9.6 14.472V8.528L15.978 11.506L9.6 14.472Z" fill="currentColor"/>
</svg>